Coordinates
version=1
nRows=18
nColumns=22
inDegrees=yes

Units are S.I. units (second, meters, Newtons, ...)
If the header above contains a line with 'inDegrees', this indicates whether rotational values are in degrees (yes) or radians (no).

endheader
time	pelvis_tilt	pelvis_list	pelvis_rotation	pelvis_tx	pelvis_ty	pelvis_tz	hip_flexion_r	hip_adduction_r	hip_rotation_r	knee_angle_r	ankle_angle_r	subtalar_angle_r	hip_flexion_l	hip_adduction_l	hip_rotation_l	knee_angle_l	ankle_angle_l	subtalar_angle_l	lumbar_extension	lumbar_bending	lumbar_rotation
      4.56000000	      1.96880948	     -2.46296748	      1.85549205	     -1.02041865	      0.91257976	      0.00327175	    -14.35596604	      4.89914873	     -4.58715316	    -18.99623928	     18.38335658	     -1.70445521	     27.38405264	     -2.87679545	    -15.31770401	    -23.18211670	     15.01268506	     -4.22862631	    -15.40374808	      2.17213107	     -1.62298171
      4.57000000	      1.93739342	     -2.60721665	      1.67044182	     -1.02987542	      0.91275426	      0.00478123	    -14.08488434	      5.10684435	     -4.69947457	    -18.29689131	     19.14246862	     -2.28334420	     27.45808024	     -3.32067482	    -16.39684622	    -22.80328121	     15.24065392	     -4.05536005	    -15.45400126	      2.28901263	     -1.60924649
      4.58000000	      1.91823372	     -2.71055222	      1.48955998	     -1.03911698	      0.91291126	      0.00621212	    -13.77886467	      5.27376742	     -4.73646563	    -17.70252720	     19.87271561	     -2.87131242	     27.56193281	     -3.74821272	    -17.45769327	    -22.72371850	     15.41252844	     -4.15575377	    -15.50943052	      2.36566315	     -1.63787056
      4.59000000	      1.92787600	     -2.78605382	      1.33363972	     -1.04816917	      0.91307788	      0.00752917	    -13.45593671	      5.41585972	     -4.77641599	    -17.21357393	     20.57608966	     -3.51584866	     27.68615663	     -4.15864173	    -18.37951793	    -22.96390397	     15.53052823	     -4.52964560	    -15.59740522	      2.42118626	     -1.68694122
      4.60000000	      1.95776090	     -2.81471328	      1.18502430	     -1.05700608	      0.91327855	      0.00876564	    -13.11586922	      5.51439843	     -4.78449545	    -16.82264889	     21.23958834	     -4.05630503	     27.81046119	     -4.53399661	    -19.13271485	    -23.48329062	     15.62447438	     -5.07914651	    -15.70586912	      2.42989632	     -1.78967027
      4.61000000	      2.02445655	     -2.81294704	      1.06117843	     -1.06561652	      0.91353534	      0.00988143	    -12.80149789	      5.58582331	     -4.82131183	    -16.48344669	     21.89587780	     -4.52113326	     27.92658103	     -4.87482922	    -19.61513085	    -24.29128132	     15.71906517	     -5.70972920	    -15.85242479	      2.41292352	     -1.89050837
      4.62000000	      2.14639027	     -2.82585713	      0.98989561	     -1.07409507	      0.91390489	      0.01085268	    -12.49510317	      5.67844229	     -4.95860518	    -16.25960114	     22.40796473	     -5.10236413	     28.01951448	     -5.20125791	    -19.74865936	    -25.34897777	     15.76624498	     -6.58757175	    -16.07645481	      2.43109452	     -2.04126573
      4.63000000	      2.29875078	     -2.82922502	      0.93752206	     -1.08233342	      0.91437549	      0.01170650	    -12.21225480	      5.76286921	     -5.09341083	    -16.08502413	     22.86694247	     -5.55832668	     28.08279271	     -5.49124878	    -19.58551528	    -26.60387286	     15.84010521	     -7.43404739	    -16.32664448	      2.44754394	     -2.19601749
      4.64000000	      2.48971168	     -2.84747791	      0.90608529	     -1.09038228	      0.91498530	      0.01242336	    -11.93730726	      5.85797510	     -5.23597088	    -15.99949431	     23.22731224	     -5.96281395	     28.10726178	     -5.75285936	    -19.11155918	    -28.01972562	     15.91332138	     -8.30106098	    -16.62080884	      2.49342746	     -2.34372173
      4.65000000	      2.70030949	     -2.88905553	      0.89037391	     -1.09821937	      0.91572543	      0.01300690	    -11.65267036	      5.96936368	     -5.35822038	    -15.99637652	     23.48751247	     -6.30326819	     28.10361706	     -5.98635210	    -18.35953953	    -29.55871544	     16.01011342	     -9.13601571	    -16.92760748	      2.57771054	     -2.46892883
      4.66000000	      2.91659477	     -2.95311597	      0.87839222	     -1.10583957	      0.91660247	      0.01346181	    -11.33162545	      6.09060571	     -5.42602141	    -16.09454192	     23.65212613	     -6.60046211	     28.07384255	     -6.18977274	    -17.39347009	    -31.18281036	     16.13088846	     -9.95669513	    -17.22797809	      2.69564579	     -2.57851324
      4.67000000	      3.12693047	     -3.03953051	      0.86814916	     -1.11321225	      0.91761748	      0.01380137	    -10.96503167	      6.22131662	     -5.43930484	    -16.28594802	     23.71561810	     -6.83988553	     28.01547530	     -6.36230268	    -16.26969030	    -32.85412591	     16.27849153	    -10.70322290	    -17.50041173	      2.84380285	     -2.67270253
      4.68000000	      3.31324870	     -3.13399144	      0.84737746	     -1.12033769	      0.91875443	      0.01403124	    -10.52681977	      6.34261360	     -5.39325538	    -16.58046716	     23.69186461	     -7.04044219	     27.93418224	     -6.49915807	    -15.07370159	    -34.54322511	     16.44661803	    -11.41188428	    -17.72238117	      3.00516619	     -2.76502991
      4.69000000	      3.47695321	     -3.22297837	      0.82660292	     -1.12718417	      0.92001771	      0.01415490	    -10.04458636	      6.44721242	     -5.29618120	    -16.93165638	     23.57429795	     -7.18714378	     27.81216420	     -6.58586723	    -13.83764059	    -36.21195954	     16.63446912	    -11.98918057	    -17.88798295	      3.15929694	     -2.86784512
      4.70000000	      3.61346620	     -3.28842313	      0.78675893	     -1.13376298	      0.92137553	      0.01420476	     -9.51297521	      6.51335252	     -5.15882560	    -17.34307997	     23.45649053	     -7.32979340	     27.64874073	     -6.63035291	    -12.65969207	    -37.85704003	     16.82421784	    -12.60262297	    -17.99458197	      3.28118748	     -2.97526840
      4.71000000	      3.71666916	     -3.31178611	      0.74980719	     -1.14005988	      0.92281425	      0.01414333	     -8.96374138	      6.53035272	     -4.99868182	    -17.74562632	     23.23057288	     -7.43883264	     27.43656112	     -6.59922297	    -11.51799320	    -39.43732904	     17.01796639	    -13.01832848	    -18.03198019	      3.35476727	     -3.11908969
      4.72000000	      3.80081274	     -3.28896746	      0.71357106	     -1.14607193	      0.92431276	      0.01402387	     -8.42933382	      6.49946844	     -4.82949232	    -18.11534121	     22.97679075	     -7.55258665	     27.16513528	     -6.50836172	    -10.45327952	    -40.95868199	     17.20596917	    -13.36760335	    -18.01698725	      3.36737386	     -3.29759967
      4.73000000	      3.88052763	     -3.22152424	      0.67977909	     -1.15181730	      0.92585307	      0.01384860	     -7.93865096	      6.42300470	     -4.66708892	    -18.42899601	     22.72030413	     -7.68224311	     26.82131527	     -6.36664706	     -9.47552664	    -42.41569387	     17.40134779	    -13.68614234	    -17.97396377	      3.32208114	     -3.50919650
